<?xml version="1.0" encoding="UTF-8" standalone="no"?>
<!-- Created with Inkscape (http://www.inkscape.org/) -->

<svg
   width="195.29074mm"
   height="102.2132mm"
   viewBox="0 0 195.29074 102.2132"
   version="1.1"
   id="svg8"
   inkscape:version="1.2.2 (732a01da63, 2022-12-09)"
   sodipodi:docname="Favicon.svg"
   inkscape:export-filename="Favicon.png"
   inkscape:export-xdpi="96"
   inkscape:export-ydpi="96"
   xmlns:inkscape="http://www.inkscape.org/namespaces/inkscape"
   xmlns:sodipodi="http://sodipodi.sourceforge.net/DTD/sodipodi-0.dtd"
   xmlns="http://www.w3.org/2000/svg"
   xmlns:svg="http://www.w3.org/2000/svg"
   xmlns:rdf="http://www.w3.org/1999/02/22-rdf-syntax-ns#"
   xmlns:cc="http://creativecommons.org/ns#"
   xmlns:dc="http://purl.org/dc/elements/1.1/">
  <defs
     id="defs2">
    <inkscape:perspective
       sodipodi:type="inkscape:persp3d"
       inkscape:vp_x="0 : -46.286798 : 1"
       inkscape:vp_y="0 : 999.99992 : 0"
       inkscape:vp_z="210 : -46.286798 : 1"
       inkscape:persp3d-origin="105 : -95.786794 : 1"
       id="perspective843" />
  </defs>
  <sodipodi:namedview
     id="base"
     pagecolor="#ffffff"
     bordercolor="#666666"
     borderopacity="1.0"
     inkscape:pageopacity="0.0"
     inkscape:pageshadow="2"
     inkscape:zoom="0.7"
     inkscape:cx="139.28571"
     inkscape:cy="153.57143"
     inkscape:document-units="mm"
     inkscape:current-layer="layer1"
     showgrid="false"
     showguides="true"
     inkscape:window-width="1920"
     inkscape:window-height="1001"
     inkscape:window-x="-9"
     inkscape:window-y="-9"
     inkscape:window-maximized="1"
     inkscape:showpageshadow="0"
     inkscape:pagecheckerboard="0"
     inkscape:deskcolor="#d1d1d1" />
  <metadata
     id="metadata5">
    <rdf:RDF>
      <cc:Work
         rdf:about="">
        <dc:format>image/svg+xml</dc:format>
        <dc:type
           rdf:resource="http://purl.org/dc/dcmitype/StillImage" />
      </cc:Work>
    </rdf:RDF>
  </metadata>
  <g
     inkscape:label="Camada 1"
     inkscape:groupmode="layer"
     id="layer1"
     transform="translate(-6.090204,-100.68349)">
    <path
       style="fill:#800080;fill-opacity:1;stroke:none;stroke-width:1.42638;stroke-miterlimit:4;stroke-dasharray:none;stroke-opacity:1"
       d="m 84.151558,100.68349 c -2.80566,0 -5.06445,2.37797 -5.06445,5.33166 0,2.95368 2.25879,5.33165 5.06445,5.33165 h 3.99581 c 2.75004,-0.0433 6.52056,-0.059 11.31351,-0.0644 2.428132,-0.39684 4.275032,-2.59634 4.275022,-5.26721 0,-2.9537 -2.25877,-5.33166 -5.064432,-5.33166 z m 52.537852,0.67962 c -24.71523,0 -25.74127,0.058 -27.14245,1.53321 -2.10867,2.21993 -1.88505,5.66569 0.49575,7.63724 0.3705,0.30681 0.70384,0.55192 1.16619,0.7514 17.07101,0.0336 20.50419,0.25685 21.76541,1.18686 2.14903,1.58468 2.19523,5.68419 0.0865,7.69436 -1.0499,1.00089 -2.28252,1.32542 -12.12877,1.50858 a 48.158736,50.699729 0 0 0 -0.0584,0.076 c -1.00811,-0.009 -2.28411,-0.0167 -3.39207,-0.0251 -3.09366,0.0424 -6.64602,0.0807 -11.22939,0.12046 -15.672522,0.13614 -21.643172,0.17426 -24.402422,-0.21694 -2.12055,-6.7e-4 -4.0077,-0.002 -6.28688,-0.002 -60.05987,0 -62.55277,0.0581 -65.95776,1.53321 -5.12425,2.21994 -4.58052,5.6657 1.20501,7.63725 4.55144,1.55101 6.28478,1.60806 62.83946,1.40799 3.31263,-0.2496 9.72141,-0.26884 23.10084,-0.26884 7.305892,0 12.583012,0.0194 16.466552,0.0812 0.63878,-0.006 1.38675,-0.008 1.99592,-0.0147 a 48.158736,50.699729 0 0 0 -0.0188,0.0529 c 6.23039,0.14417 8.01385,0.44977 8.86068,1.07418 2.14903,1.58467 2.19521,5.6842 0.0865,7.69439 -1.43444,1.36745 -3.13783,1.4744 -26.808482,1.67992 -15.76757,0.13686 -21.71421,0.17459 -24.45119,-0.22427 -2.1214,0.22178 -2.66121,0.58618 -3.23726,1.19262 -2.10868,2.21994 -1.88457,5.66622 0.49624,7.63776 0.54688,0.45288 0.98432,0.77848 1.90582,1.00765 3.84314,-0.0536 9.29569,-0.0601 17.16785,-0.0601 22.069452,0 25.914322,0.16231 27.304722,1.15071 2.14904,1.5277 2.19473,5.48028 0.0861,7.41821 -0.64365,0.59152 -1.63085,1.17718 -4.52938,1.30998 a 48.158736,50.699729 0 0 0 5e-4,0.001 c -0.008,-9e-5 -0.0195,9e-5 -0.0279,0 -0.009,4.2e-4 -0.017,0.001 -0.027,0.001 -1.53462,0.0665 -3.64721,0.0283 -6.47056,-0.055 -6.848732,-0.0407 -15.672362,-0.0539 -27.158872,-0.0539 -46.29736,0 -48.21881,0.0577 -50.84356,1.5327 -3.95005,2.21994 -3.53103,5.66623 0.92877,7.63777 3.34256,1.47765 4.95171,1.59724 42.74791,1.43261 2.99093,-0.27525 8.58697,-0.17913 17.41423,-0.0812 10.48535,-0.0545 18.109602,-0.11199 23.727992,-0.19492 1.07106,-0.0543 2.09281,-0.0975 2.96601,-0.0938 13.7418,0.0599 15.83888,0.71575 16.99912,1.54054 2.14904,1.52773 2.19473,5.4803 0.0861,7.41821 -1.03252,0.94893 -2.25071,1.26693 -11.65446,1.44519 a 48.158736,50.699729 0 0 0 0.0517,0.0754 c -2.07523,1.4e-4 -3.6256,10e-4 -5.51739,0.002 -2.77349,0.0327 -5.85455,0.0637 -9.68839,0.0959 -10.545362,0.0882 -16.675612,0.13258 -20.414572,0.0382 -9.70348,0.16916 -11.14405,0.54687 -12.6539,1.39541 -3.95005,2.21994 -3.53103,5.66569 0.92877,7.63723 3.58328,1.58409 4.60807,1.61204 51.005812,1.39698 2.42157,-0.0118 4.27391,-0.0217 6.45662,-0.0326 a 48.158736,50.699729 0 0 0 28.38978,9.82073 48.158736,50.699729 0 0 0 42.05854,-26.04155 L 181.9596,161.63648 a 24.079368,25.349864 0 0 1 -22.68873,16.94918 24.079368,25.349864 0 0 1 -24.07937,-25.34989 24.079368,25.349864 0 0 1 24.07937,-25.3499 24.079368,25.349864 0 0 1 20.7625,12.57121 l 20.4899,-14.41054 a 48.158736,50.699729 0 0 0 -41.20047,-24.54816 48.158736,50.699729 0 0 0 -1.3588,0.0719 c -3.90646,-0.16532 -10.35466,-0.20707 -21.27459,-0.20707 z m -92.316782,40.80097 c -2.80566,0 -5.06445,2.37795 -5.06445,5.33165 0,2.9537 2.25879,5.33115 5.06445,5.33115 h 14.51991 c 2.80566,0 5.06395,-2.37745 5.06395,-5.33115 0,-2.9537 -2.25829,-5.33165 -5.06395,-5.33165 z"
       id="path927"
       inkscape:connector-curvature="0" />
    <text
       xml:space="preserve"
       style="font-style:normal;font-weight:normal;font-size:10.5833px;line-height:1.25;font-family:sans-serif;letter-spacing:0px;word-spacing:0px;fill:#000000;fill-opacity:1;stroke:none;stroke-width:0.264583"
       x="152.87817"
       y="194.90305"
       id="text5063"><tspan
         sodipodi:role="line"
         id="tspan5061"
         x="152.87817"
         y="194.90305"
         style="stroke-width:0.264583" /></text>
  </g>
</svg>
