<?xml version="1.0" encoding="UTF-8" standalone="no"?>
<!-- Created with Inkscape (http://www.inkscape.org/) -->

<svg
   xmlns:dc="http://purl.org/dc/elements/1.1/"
   xmlns:cc="http://creativecommons.org/ns#"
   xmlns:rdf="http://www.w3.org/1999/02/22-rdf-syntax-ns#"
   xmlns:svg="http://www.w3.org/2000/svg"
   xmlns="http://www.w3.org/2000/svg"
   xmlns:sodipodi="http://sodipodi.sourceforge.net/DTD/sodipodi-0.dtd"
   xmlns:inkscape="http://www.inkscape.org/namespaces/inkscape"
   width="210mm"
   height="297mm"
   viewBox="0 0 210 297"
   version="1.1"
   id="svg8"
   inkscape:version="0.92.4 (5da689c313, 2019-01-14)"
   sodipodi:docname="ICONES LOG CONTROL.svg"
   inkscape:export-filename="C:\Users\1091392313047\Desktop\ICONES PAGINA WEB CONTROL LOG.png"
   inkscape:export-xdpi="96"
   inkscape:export-ydpi="96">
  <defs
     id="defs2">
    <inkscape:perspective
       sodipodi:type="inkscape:persp3d"
       inkscape:vp_x="0 : 148.5 : 1"
       inkscape:vp_y="0 : 1000 : 0"
       inkscape:vp_z="210 : 148.5 : 1"
       inkscape:persp3d-origin="105 : 99 : 1"
       id="perspective4608" />
  </defs>
  <sodipodi:namedview
     id="base"
     pagecolor="#ffffff"
     bordercolor="#666666"
     borderopacity="1.0"
     inkscape:pageopacity="0.0"
     inkscape:pageshadow="2"
     inkscape:zoom="0.175"
     inkscape:cx="-2059.7885"
     inkscape:cy="676.05106"
     inkscape:document-units="mm"
     inkscape:current-layer="layer1"
     showgrid="false"
     inkscape:window-width="1600"
     inkscape:window-height="837"
     inkscape:window-x="-8"
     inkscape:window-y="-8"
     inkscape:window-maximized="1"
     showguides="false" />
  <metadata
     id="metadata5">
    <rdf:RDF>
      <cc:Work
         rdf:about="">
        <dc:format>image/svg+xml</dc:format>
        <dc:type
           rdf:resource="http://purl.org/dc/dcmitype/StillImage" />
        <dc:title></dc:title>
      </cc:Work>
    </rdf:RDF>
  </metadata>
  <g
     inkscape:label="Camada 1"
     inkscape:groupmode="layer"
     id="layer1">
    <path
       style="fill:#800080;stroke:none;stroke-width:0.26458332px;stroke-linecap:butt;stroke-linejoin:miter;stroke-opacity:1"
       d="m 51.849311,48.970441 -17.76478,19.27632 c -1.55626,2.88896 -5.65971,5.26886 -2.64584,9.0718 -12.17154,5.79564 -15.44539,11.59092 -16.63104,17.38654 C 1.3048005,114.08331 -6.8117695,132.75911 2.7122705,149.13383 c 2.01949,3.9084 4.5003,5.42176 6.04769,0 2.2659705,-23.94225 15.2070305,-26.53496 26.0805905,-33.26207 l 32.12774,32.50605 -67.87906048,65.92464 C -10.183859,236.17238 13.194461,247.2312 24.413791,239.62649 l 60.69758,-64.79035 65.389809,66.90186 c 19.56144,12.23695 34.95512,-9.7731 25.32455,-25.32457 l -65.76808,-66.90132 -0.75602,-0.37828 12.85141,-13.22917 c 36.02504,8.90998 58.26402,-15.22425 55.94025,-41.955049 -2.80917,-6.56104 -4.14419,-2.80279 -6.04769,-3.02411 l -19.27634,20.410639 -20.41116,-4.53564 -6.42545,-21.544439 19.27686,-19.65513 c 4.05422,-5.15395 1.09309,-6.09846 -2.26808,-6.8032 -18.48261,-0.0675 -54.037739,14.62606 -40.82128,56.318539 l -19.276859,17.38654 -30.6157,-30.99398 v -2.267559 c 4.47516,2.368449 6.49509,-1.40115 9.07129,-3.78013 l 19.27685,-17.76481 z M 15.029871,217.03822 a 8.8494575,8.621519 0 0 1 8.84907,8.62168 8.8494575,8.621519 0 0 1 -8.84907,8.62169 8.8494575,8.621519 0 0 1 -8.8496005,-8.62169 8.8494575,8.621519 0 0 1 8.8496005,-8.62168 z"
       id="path4704"
       inkscape:connector-curvature="0" />
    <path
       style="fill:#800080;stroke:none;stroke-width:0.19126298;stroke-opacity:1"
       d="m -145.54107,95.614021 a 106.11677,102.91932 0 0 0 -105.72793,94.658309 11.792383,11.846017 0 0 1 5.03381,-1.14723 11.792383,11.846017 0 0 1 6.85437,2.21848 l 38.37803,-34.96789 a 11.792383,11.846017 0 0 1 -0.29869,-2.58176 11.792383,11.846017 0 0 1 11.79203,-11.84579 11.792383,11.846017 0 0 1 11.58483,9.67073 l 36.44428,13.50771 c 0.0347,0.0128 0.0656,0.0314 0.0977,0.048 a 11.792384,11.846018 0 0 1 9.36997,-4.67775 11.792384,11.846018 0 0 1 3.09128,0.4284 l 40.84351,-37.21478 a 11.792384,11.846019 0 0 1 -0.67438,-3.90932 11.792384,11.846019 0 0 1 2.06912,-6.70192 106.11677,102.91932 0 0 0 -58.8579,-17.485239 z m 77.01803,32.447119 a 11.792384,11.846019 0 0 1 -8.43721,3.58634 11.792384,11.846019 0 0 1 -5.32939,-1.29346 l -39.54642,36.03294 a 11.792384,11.846018 0 0 1 1.61592,5.95571 11.792384,11.846018 0 0 1 -11.79256,11.84631 11.792384,11.846018 0 0 1 -11.77448,-11.34608 c -0.0782,-0.005 -0.15699,-0.0181 -0.23512,-0.047 l -35.28673,-13.07879 a 11.792383,11.846017 0 0 1 -10.20042,5.92316 11.792383,11.846017 0 0 1 -6.45076,-1.94149 l -38.6612,35.22678 a 11.792383,11.846017 0 0 1 0.17878,2.04536 11.792383,11.846017 0 0 1 -11.79256,11.84633 11.792383,11.846017 0 0 1 -4.4023,-0.86559 106.11677,102.91932 0 0 0 105.09642,89.501 106.11677,102.91932 0 0 0 106.11703,-102.91932 106.11677,102.91932 0 0 0 -29.099,-70.47217 z m -30.73714,39.80635 h 13.17594 c 5.90737,0 10.66292,4.75548 10.66292,10.66293 v 68.89242 c 0,5.90738 -4.75555,10.66345 -10.66292,10.66345 h -13.17594 c -5.90738,0 -10.66291,-4.75607 -10.66291,-10.66345 v -68.89242 c 0,-5.90745 4.75553,-10.66293 10.66291,-10.66293 z m -96.04375,16.21711 h 8.48114 c 7.2078,0 13.01056,5.80277 13.01056,13.01057 v 49.83467 c 0,7.20783 -5.80276,13.01059 -13.01056,13.01059 h -8.48114 c -7.20781,0 -13.01057,-5.80276 -13.01057,-13.01059 v -49.83467 c 0,-7.2078 5.80276,-13.01059 13.01057,-13.01057 z m 49.83469,20.06854 h 11.19001 c 6.45732,0 11.65613,5.1983 11.65614,11.65561 v 30.6219 c 0,6.45731 -5.19882,11.65564 -11.65614,11.65564 h -11.19001 c -6.45732,0 -11.65614,-5.19833 -11.65614,-11.65564 v -30.6219 c 0,-6.45731 5.19882,-11.65561 11.65614,-11.65561 z"
       id="path1015"
       inkscape:connector-curvature="0" />
    <g
       id="g1179"
       transform="translate(-276.67857,154.21428)">
      <path
         inkscape:connector-curvature="0"
         id="rect3726"
         d="m -158.17844,-64.803833 c -23.31736,0 -42.08941,18.772058 -42.08941,42.089415 V 80.583117 c 0,23.317363 18.77205,42.089423 42.08941,42.089423 h 39.04206 c 23.317335,0 42.088879,-18.77206 42.088879,-42.089423 V -22.714418 c 0,-23.317357 -18.771544,-42.089415 -42.088879,-42.089415 z m -5.18469,20.353276 h 49.7122 c 7.69948,0 13.898357,6.198359 13.898357,13.897859 V 3.658135 c 0,7.699499 -6.198877,13.897858 -13.898357,13.897858 h -49.7122 c -7.69951,0 -13.89788,-6.198359 -13.89788,-13.897858 v -34.210833 c 0,-7.6995 6.19837,-13.897859 13.89788,-13.897859 z m 24.9008,70.089777 a 30.616072,30.616072 0 0 1 30.61619,30.615667 30.616072,30.616072 0 0 1 -30.61619,30.61622 30.616072,30.616072 0 0 1 -30.61623,-30.61622 30.616072,30.616072 0 0 1 30.61623,-30.615667 z"
         style="fill:#800080;stroke-width:0.88970107" />
      <g
         transform="translate(-223.66873,-106.98265)"
         id="g4558">
        <circle
           style="fill:#800080;stroke-width:0.2762776"
           id="path3747"
           cx="84.123085"
           cy="169.71288"
           r="12.628486" />
        <path
           style="fill:#800080;stroke:none;stroke-width:0.26458332px;stroke-linecap:butt;stroke-linejoin:miter;stroke-opacity:1"
           d="m 72.296405,165.23612 23.920625,0.40091 -1.537857,-2.88249 c -2.751678,-6.12113 -6.646405,-11.01756 -10.622906,-15.82638 -2.966183,3.97243 -6.273066,7.68934 -8.589997,12.14871 z"
           id="path3749"
           inkscape:connector-curvature="0"
           sodipodi:nodetypes="cccccc" />
      </g>
      <rect
         ry="2.9065504"
         y="-12.480863"
         x="-162.84253"
         height="14.967087"
         width="50.113033"
         id="rect4564"
         style="fill:#800080;stroke:none;stroke-width:0.26458332" />
      <rect
         ry="2.9065504"
         y="-31.152115"
         x="-162.31337"
         height="14.967087"
         width="50.113033"
         id="rect4564-2"
         style="fill:#800080;stroke:none;stroke-width:0.26458332" />
      <rect
         ry="1.7953898"
         y="120.29108"
         x="-172.80615"
         height="3.5907795"
         width="65.76786"
         id="rect4606"
         style="fill:#800080;fill-opacity:1;stroke:none;stroke-width:0.19494992" />
      <rect
         ry="5.6696434"
         y="122.97471"
         x="-179.91212"
         height="11.339287"
         width="82.587776"
         id="rect4624"
         style="fill:#800080;stroke:none;stroke-width:0.15106642" />
      <path
         inkscape:connector-curvature="0"
         id="path4626"
         d="m -35.927946,28.333838 -10.583333,2.268077 c 3.792291,12.921401 -0.01698,26.928542 -3.024106,40.821282 -11.400168,-11.01331 -22.351169,-23.03739 -31.749998,-38.553718 l 0.56689,19.088238 27.403496,30.99397 c -10.897561,29.351563 -7.314658,39.257423 -0.756026,45.167793 12.499099,8.11873 17.784804,3.3564 23.434743,-0.75551 4.795581,-5.97827 11.399379,-17.52433 -0.378272,-33.072913 l -10.961087,-13.04055 c 6.57532,-17.03096 6.954243,-34.88812 6.047693,-52.916669 z m -9.827308,63.878269 c 3.785301,4.30495 16.834398,15.188463 9.449036,26.269203 -2.80261,4.43531 -6.155153,7.2869 -12.945462,0.75602 -0.586449,-0.19903 -4.372084,-8.0724 3.496426,-27.025223 z"
         style="fill:#800080;stroke:none;stroke-width:0.26458332px;stroke-linecap:butt;stroke-linejoin:miter;stroke-opacity:1" />
      <g
         style="fill:#800080;fill-opacity:1"
         transform="translate(-359.6296,-74.844397)"
         id="g4640">
        <path
           style="fill:#800080;fill-opacity:1;stroke:none;stroke-width:0.26458332px;stroke-linecap:butt;stroke-linejoin:miter;stroke-opacity:1"
           d="m 319.38708,41.223062 -2.67268,1.469982 -3.34087,6.280833 c -5.69073,6.314182 -12.09733,12.242896 -8.81991,23.386084 l 6.28083,26.726951 c 1.30015,3.146938 2.9783,4.907918 5.34541,4.142678 l 9.35442,-2.13815 c 3.99921,-1.345413 1.55468,-3.76478 1.73725,-5.7463 l -5.21176,-20.17885 c -0.9063,-4.85831 1.39241,-5.138033 2.80633,-6.681737 l 12.2944,-2.672696 c -1.65735,-8.084212 -5.79639,-9.96418 -9.48807,-12.962572 l 1.47,-3.207235 c 0.68615,-1.744446 -1.05976,-2.516066 -2.00454,-3.608138 z"
           id="path4634"
           inkscape:connector-curvature="0"
           sodipodi:nodetypes="ccccccccccccccc" />
        <path
           style="fill:#800080;fill-opacity:1;stroke:none;stroke-width:0.26458332px;stroke-linecap:butt;stroke-linejoin:miter;stroke-opacity:1"
           d="m 330.94649,67.081387 5.07811,19.109772 c 0.16319,2.156241 1.13222,4.670634 -1.73725,5.479026 l -7.41673,2.071338 1.09316,5.409156 -1.15997,1.205771 13.49712,-3.741779 c 3.50535,-1.56455 3.13046,-4.681198 3.20722,-7.617182 L 337.1605,65.811857 Z"
           id="path4636"
           inkscape:connector-curvature="0"
           sodipodi:nodetypes="cccccccccc" />
      </g>
      <path
         sodipodi:nodetypes="cccccccccc"
         inkscape:connector-curvature="0"
         id="path4644"
         d="m -40.429214,-33.535186 7.9375,4.724701 6.2366,-12.662201 17.00895,-14.741072 c 1.1246,-1.215005 1.42281,-2.252407 1.12246,-3.823651 l -2.25641,-2.790932 c -1.85299,-1.465748 -3.20676,-0.601807 -4.5357,0.377976 l -16.85192,14.879876 -0.91297,0.806136 z"
         style="fill:#800080;fill-opacity:1;stroke:none;stroke-width:0.26458332px;stroke-linecap:butt;stroke-linejoin:miter;stroke-opacity:1" />
      <rect
         transform="matrix(0.97771533,-0.20993506,0.15322745,0.98819095,0,0)"
         ry="0.97736567"
         y="18.234446"
         x="-50.735439"
         height="1.9547313"
         width="14.367226"
         id="rect4646"
         style="fill:#800080;fill-opacity:1;stroke:none;stroke-width:0.28461862" />
    </g>
  </g>
</svg>
