<?xml version="1.0" encoding="UTF-8" standalone="no"?>
<!-- Created with Inkscape (http://www.inkscape.org/) -->

<svg
   xmlns:dc="http://purl.org/dc/elements/1.1/"
   xmlns:cc="http://creativecommons.org/ns#"
   xmlns:rdf="http://www.w3.org/1999/02/22-rdf-syntax-ns#"
   xmlns:svg="http://www.w3.org/2000/svg"
   xmlns="http://www.w3.org/2000/svg"
   xmlns:sodipodi="http://sodipodi.sourceforge.net/DTD/sodipodi-0.dtd"
   xmlns:inkscape="http://www.inkscape.org/namespaces/inkscape"
   width="210mm"
   height="297mm"
   viewBox="0 0 210 297"
   version="1.1"
   id="svg8"
   inkscape:version="0.92.4 (5da689c313, 2019-01-14)"
   sodipodi:docname="ICONE GRAFICOS LOG CONTROL.svg"
   inkscape:export-filename="C:\Users\1091392313047\Desktop\ICONES PAGINA WEB CONTROL LOG.png"
   inkscape:export-xdpi="96"
   inkscape:export-ydpi="96">
  <defs
     id="defs2">
    <inkscape:perspective
       sodipodi:type="inkscape:persp3d"
       inkscape:vp_x="0 : 148.5 : 1"
       inkscape:vp_y="0 : 1000 : 0"
       inkscape:vp_z="210 : 148.5 : 1"
       inkscape:persp3d-origin="105 : 99 : 1"
       id="perspective4608" />
  </defs>
  <sodipodi:namedview
     id="base"
     pagecolor="#ffffff"
     bordercolor="#666666"
     borderopacity="1.0"
     inkscape:pageopacity="0.0"
     inkscape:pageshadow="2"
     inkscape:zoom="0.175"
     inkscape:cx="-2059.7885"
     inkscape:cy="676.05106"
     inkscape:document-units="mm"
     inkscape:current-layer="layer1"
     showgrid="false"
     inkscape:window-width="1600"
     inkscape:window-height="837"
     inkscape:window-x="-8"
     inkscape:window-y="-8"
     inkscape:window-maximized="1"
     showguides="false" />
  <metadata
     id="metadata5">
    <rdf:RDF>
      <cc:Work
         rdf:about="">
        <dc:format>image/svg+xml</dc:format>
        <dc:type
           rdf:resource="http://purl.org/dc/dcmitype/StillImage" />
        <dc:title></dc:title>
      </cc:Work>
    </rdf:RDF>
  </metadata>
  <g
     inkscape:label="Camada 1"
     inkscape:groupmode="layer"
     id="layer1">
    <path
       style="fill:#800080;stroke:none;stroke-width:0.19126298;stroke-opacity:1"
       d="M 105.43512,59.328307 A 106.11677,102.91932 0 0 0 -0.29280952,153.98662 11.792383,11.846017 0 0 1 4.7410005,152.83939 11.792383,11.846017 0 0 1 11.59537,155.05787 L 49.9734,120.08998 a 11.792383,11.846017 0 0 1 -0.29869,-2.58176 11.792383,11.846017 0 0 1 11.79203,-11.84579 11.792383,11.846017 0 0 1 11.58483,9.67073 l 36.44428,13.50771 c 0.0347,0.0128 0.0656,0.0314 0.0977,0.048 a 11.792384,11.846018 0 0 1 9.36997,-4.67775 11.792384,11.846018 0 0 1 3.09128,0.4284 l 40.84351,-37.214784 a 11.792384,11.846019 0 0 1 -0.67438,-3.90932 11.792384,11.846019 0 0 1 2.06912,-6.70192 106.11677,102.91932 0 0 0 -58.8579,-17.485239 z m 77.01803,32.447119 a 11.792384,11.846019 0 0 1 -8.43721,3.58634 11.792384,11.846019 0 0 1 -5.32939,-1.29346 l -39.54642,36.032944 a 11.792384,11.846018 0 0 1 1.61592,5.95571 11.792384,11.846018 0 0 1 -11.79256,11.84631 11.792384,11.846018 0 0 1 -11.77448,-11.34608 c -0.0782,-0.005 -0.15699,-0.0181 -0.23512,-0.047 L 71.66716,123.4314 a 11.792383,11.846017 0 0 1 -10.20042,5.92316 11.792383,11.846017 0 0 1 -6.45076,-1.94149 l -38.6612,35.22678 a 11.792383,11.846017 0 0 1 0.17878,2.04536 11.792383,11.846017 0 0 1 -11.7925595,11.84633 11.792383,11.846017 0 0 1 -4.40230002,-0.86559 106.11677,102.91932 0 0 0 105.09641952,89.501 106.11677,102.91932 0 0 0 106.11703,-102.91932 106.11677,102.91932 0 0 0 -29.099,-70.472174 z m -30.73714,39.806354 h 13.17594 c 5.90737,0 10.66292,4.75548 10.66292,10.66293 v 68.89242 c 0,5.90738 -4.75555,10.66345 -10.66292,10.66345 h -13.17594 c -5.90738,0 -10.66291,-4.75607 -10.66291,-10.66345 v -68.89242 c 0,-5.90745 4.75553,-10.66293 10.66291,-10.66293 z m -96.04375,16.21711 h 8.48114 c 7.2078,0 13.01056,5.80277 13.01056,13.01057 v 49.83467 c 0,7.20783 -5.80276,13.01059 -13.01056,13.01059 h -8.48114 c -7.20781,0 -13.01057,-5.80276 -13.01057,-13.01059 v -49.83467 c 0,-7.2078 5.80276,-13.01059 13.01057,-13.01057 z m 49.83469,20.06854 h 11.19001 c 6.45732,0 11.65613,5.1983 11.65614,11.65561 v 30.6219 c 0,6.45731 -5.19882,11.65564 -11.65614,11.65564 h -11.19001 c -6.45732,0 -11.65614,-5.19833 -11.65614,-11.65564 v -30.6219 c 0,-6.45731 5.19882,-11.65561 11.65614,-11.65561 z"
       id="path1015"
       inkscape:connector-curvature="0" />
  </g>
</svg>
